<?xml version="1.0" encoding="utf-8"?>
<!-- Generator: Adobe Illustrator 21.0.2, SVG Export Plug-In . SVG Version: 6.00 Build 0)  -->
<svg version="1.1" id="Layer_1" xmlns="http://www.w3.org/2000/svg" xmlns:xlink="http://www.w3.org/1999/xlink" x="0px" y="0px"
	 width="1582px" height="288px" viewBox="0 0 1582 288" style="enable-background:new 0 0 1582 288;" xml:space="preserve">
<style type="text/css">
	.st0{font-family:'Courier-Bold';}
	.st1{font-size:250px;}
	.st2{fill:none;stroke:#000000;stroke-width:14.15;stroke-linejoin:round;stroke-miterlimit:10;}
	.st3{fill:#FCEA10;}
	.st4{fill:none;stroke:#000000;stroke-width:11.32;stroke-linejoin:round;stroke-miterlimit:10;}
</style>
<g id="layer4" inkscape:groupmode="layer" inkscape:label="hacmanwhite">
	
		<g id="g23" transform="matrix(1.25,0,0,-1.25,54.022365,879.75952)" inkscape:export-filename="/Users/parag0n/Documents/svn.hacman.org.uk/Logos/PNG/126/hackspace-white.png" inkscape:export-xdpi="20.968761" inkscape:export-ydpi="20.968761">
		<text transform="matrix(0.8 0 0 -0.8 46.0001 523.817)" class="st0 st1">H</text>
		<text transform="matrix(0.8 0 0 -0.8 166.0001 523.817)" class="st0 st1">a</text>
	</g>
	
		<g id="g29" transform="matrix(1.25,0,0,-1.25,54.022365,879.75952)" inkscape:export-filename="/Users/parag0n/Documents/svn.hacman.org.uk/Logos/PNG/126/hackspace-white.png" inkscape:export-xdpi="20.968761" inkscape:export-ydpi="20.968761">
		<path id="path31" class="st2" d="M449.9,632.6v-70.9"/>
	</g>
	
		<path id="path45" inkscape:export-filename="/Users/parag0n/Documents/svn.hacman.org.uk/Logos/PNG/126/hackspace-white.png" inkscape:export-xdpi="20.968761" inkscape:export-ydpi="20.968761" class="st3" d="
		M545.5,266.1l-12.8-0.6l-12.2-1.9l-11.9-3l-11.4-4.2l-10.9-5.1l-10.2-6.2l-9.5-7.1l-8.9-8l-8-8.9l-7.1-9.5l-6.2-10.2l-5.1-10.9
		L427,179l-3-11.9l-1.9-12.2l-0.6-12.8l0.6-12.6l1.9-12.4l3-11.9l4.2-11.4l5.1-10.9l6.2-10.1l7.1-9.6l8-8.8l8.9-8l9.5-7.1l10.2-6.2
		l10.9-5.2l11.4-4.1l11.9-3.1l12.2-1.9l12.8-0.6l12.6,0.6l12.4,1.9l11.9,3.1l11.4,4.1l10.9,5.2l10.2,6.2l9.5,7.1l8.9,8l8,8.8
		l7.1,9.6l6.1,10.1l-109,59.1l109,59.1l-6.1,10.2l-7.1,9.5l-8,8.9l-8.9,8l-9.5,7.1l-10.2,6.2l-10.9,5.1l-11.4,4.2l-11.9,3l-12.4,1.9
		L545.5,266.1z"/>
	
		<g id="g47" transform="matrix(1.25,0,0,-1.25,54.022365,879.75952)" inkscape:export-filename="/Users/parag0n/Documents/svn.hacman.org.uk/Logos/PNG/126/hackspace-white.png" inkscape:export-xdpi="20.968761" inkscape:export-ydpi="20.968761">
		<path id="path49" class="st4" d="M393.2,490.9l-10.2,0.5l-9.8,1.5l-9.5,2.4l-9.1,3.4l-8.7,4.1l-8.2,5l-7.6,5.7l-7.1,6.4l-6.4,7.1
			l-5.7,7.6l-5,8.2l-4.1,8.7l-3.4,9.1l-2.4,9.5l-1.5,9.8l-0.5,10.2l0.5,10.1l1.5,9.9l2.4,9.5l3.4,9.1l4.1,8.7l5,8.1l5.7,7.7l6.4,7
			l7.1,6.4l7.6,5.7l8.2,5l8.7,4.2l9.1,3.3l9.5,2.5l9.8,1.5l10.2,0.5l10.1-0.5l9.9-1.5l9.5-2.5l9.1-3.3l8.7-4.2l8.2-5l7.6-5.7
			l7.1-6.4l6.4-7l5.7-7.7l4.9-8.1l-87.2-47.3l87.2-47.3l-4.9-8.2l-5.7-7.6l-6.4-7.1l-7.1-6.4l-7.6-5.7l-8.2-5l-8.7-4.1l-9.1-3.4
			l-9.5-2.4l-9.9-1.5L393.2,490.9z"/>
	</g>
	<g>
		<text transform="matrix(1 0 0 1 665.1605 224.9879)" class="st0 st1">Screen</text>
	</g>
</g>
</svg>
